<?xml version="1.0"?>
<svg width="50" height="50" xmlns="http://www.w3.org/2000/svg">

 <g>
  <title>background</title>
  <rect fill="none" id="canvas_background" height="52" width="52" y="-1" x="-1"/>
 </g>
 <g>
  <title stroke="#07b87b">Layer 1</title>
  <rect x="0" y="0" id="svg_1" width="50" height="50" fill="none"/>
  <path id="svg_2" stroke-width="2" stroke-miterlimit="10" stroke="#07b87b" fill="none" d="m44,20c0,-1.104 -0.896,-2 -2,-2s-2,0.896 -2,2c0,0.476 0,14.523998 0,15c0,1.104 0.896,2 2,2s2,-0.896 2,-2c0,-0.476002 0,-14.524 0,-15z"/>
  <path id="svg_3" stroke-width="2" stroke-miterlimit="10" stroke="#07b87b" fill="none" d="m28,47c1.104,0 2,-0.896 2,-2s-0.896,-2 -2,-2c-0.476,0 -4.524,0 -5,0c-1.104,0 -2,0.896 -2,2s0.896,2 2,2c0.476,0 4.524,0 5,0z"/>
  <path id="svg_4" stroke-width="2" stroke-miterlimit="10" stroke="#07b87b" fill="none" d="m8,19.081804c0,-9.389 7.611,-17 17,-17s17,7.611 17,17"/>
  <path id="svg_5" stroke-width="2" stroke-miterlimit="10" stroke="#07b87b" fill="none" d="m44,20c2.762001,0 5,3.357 5,7.5c0,4.141001 -2.237999,7.5 -5,7.5"/>
  <path id="svg_6" stroke-width="2" stroke-miterlimit="10" stroke="#07b87b" fill="none" d="m6,20c0,-1.104 0.896,-2 2,-2s2,0.896 2,2c0,0.476 0,14.523998 0,15c0,1.104 -0.896,2 -2,2s-2,-0.896 -2,-2c0,-0.476002 0,-14.524 0,-15z"/>
  <path id="svg_7" stroke-width="2" stroke-miterlimit="10" stroke="#07b87b" fill="none" d="m6,20c-2.761,0 -5,3.357 -5,7.5c0,4.141001 2.239,7.5 5,7.5"/>
  <path id="svg_8" stroke-width="2" stroke-miterlimit="10" stroke="#07b87b" fill="none" d="m42,37c0,5 -3,8 -8,8l-4,0"/>
 </g>
</svg>